<?xml version="1.0" encoding="UTF-8"?>
<svg width="261px" height="79px" viewBox="0 0 261 79" version="1.1" xmlns="http://www.w3.org/2000/svg" xmlns:xlink="http://www.w3.org/1999/xlink">
    <!-- Generator: Sketch 52.3 (67297) - http://www.bohemiancoding.com/sketch -->
    <title>Artboard</title>
    <desc>Created with Sketch.</desc>
    <g id="Artboard" stroke="none" stroke-width="1" fill="none" fill-rule="evenodd">
        <g id="Group-3">
            <g id="Group-2" transform="translate(107.000000, 21.000000)" fill="#FFFFFF">
                <g id="Group-4">
                    <path d="M0,12.0179697 C0,8.76833928 0.574279523,6.26578786 1.7228558,4.51024038 C2.87143207,2.75469291 4.46354035,1.87693233 6.49922838,1.87693233 C8.53491641,1.87693233 10.1270247,2.75469291 11.275601,4.51024038 C12.4241772,6.26578786 12.9984568,8.76833928 12.9984568,12.0179697 C12.9984568,15.2676002 12.4241772,17.7701516 11.275601,19.5256991 C10.1270247,21.2812465 8.53491641,22.1590071 6.49922838,22.1590071 C4.46354035,22.1590071 2.87143207,21.2812465 1.7228558,19.5256991 C0.574279523,17.7701516 0,15.2676002 0,12.0179697 Z M10.253093,12.0179697 C10.253093,10.9534356 10.1923968,9.94494474 10.0710026,8.99246685 C9.94960836,8.03998897 9.74417503,7.20891779 9.45469646,6.49922838 C9.16521788,5.78953897 8.77769593,5.22459733 8.29211897,4.8043865 C7.806542,4.38417566 7.20891779,4.1740734 6.49922838,4.1740734 C5.78953897,4.1740734 5.19191475,4.38417566 4.70633779,4.8043865 C4.22076083,5.22459733 3.83323888,5.78953897 3.5437603,6.49922838 C3.25428173,7.20891779 3.0488484,8.03998897 2.92745416,8.99246685 C2.80605992,9.94494474 2.74536371,10.9534356 2.74536371,12.0179697 C2.74536371,13.0825038 2.80605992,14.0909947 2.92745416,15.0434726 C3.0488484,15.9959505 3.25428173,16.8270217 3.5437603,17.5367111 C3.83323888,18.2464005 4.22076083,18.8113421 4.70633779,19.2315529 C5.19191475,19.6517638 5.78953897,19.861866 6.49922838,19.861866 C7.20891779,19.861866 7.806542,19.6517638 8.29211897,19.2315529 C8.77769593,18.8113421 9.16521788,18.2464005 9.45469646,17.5367111 C9.74417503,16.8270217 9.94960836,15.9959505 10.0710026,15.0434726 C10.1923968,14.0909947 10.253093,13.0825038 10.253093,12.0179697 Z M15.4996992,12.0179697 C15.4996992,8.76833928 16.0739787,6.26578786 17.222555,4.51024038 C18.3711313,2.75469291 19.9632395,1.87693233 21.9989276,1.87693233 C24.0346156,1.87693233 25.6267239,2.75469291 26.7753002,4.51024038 C27.9238764,6.26578786 28.498156,8.76833928 28.498156,12.0179697 C28.498156,15.2676002 27.9238764,17.7701516 26.7753002,19.5256991 C25.6267239,21.2812465 24.0346156,22.1590071 21.9989276,22.1590071 C19.9632395,22.1590071 18.3711313,21.2812465 17.222555,19.5256991 C16.0739787,17.7701516 15.4996992,15.2676002 15.4996992,12.0179697 Z M25.7527922,12.0179697 C25.7527922,10.9534356 25.692096,9.94494474 25.5707018,8.99246685 C25.4493076,8.03998897 25.2438742,7.20891779 24.9543957,6.49922838 C24.6649171,5.78953897 24.2773951,5.22459733 23.7918182,4.8043865 C23.3062412,4.38417566 22.708617,4.1740734 21.9989276,4.1740734 C21.2892382,4.1740734 20.6916139,4.38417566 20.206037,4.8043865 C19.72046,5.22459733 19.3329381,5.78953897 19.0434595,6.49922838 C18.7539809,7.20891779 18.5485476,8.03998897 18.4271534,8.99246685 C18.3057591,9.94494474 18.2450629,10.9534356 18.2450629,12.0179697 C18.2450629,13.0825038 18.3057591,14.0909947 18.4271534,15.0434726 C18.5485476,15.9959505 18.7539809,16.8270217 19.0434595,17.5367111 C19.3329381,18.2464005 19.72046,18.8113421 20.206037,19.2315529 C20.6916139,19.6517638 21.2892382,19.861866 21.9989276,19.861866 C22.708617,19.861866 23.3062412,19.6517638 23.7918182,19.2315529 C24.2773951,18.8113421 24.6649171,18.2464005 24.9543957,17.5367111 C25.2438742,16.8270217 25.4493076,15.9959505 25.5707018,15.0434726 C25.692096,14.0909947 25.7527922,13.0825038 25.7527922,12.0179697 Z M30.9993984,12.0179697 C30.9993984,8.76833928 31.5736779,6.26578786 32.7222542,4.51024038 C33.8708305,2.75469291 35.4629387,1.87693233 37.4986268,1.87693233 C39.5343148,1.87693233 41.1264231,2.75469291 42.2749994,4.51024038 C43.4235756,6.26578786 43.9978552,8.76833928 43.9978552,12.0179697 C43.9978552,15.2676002 43.4235756,17.7701516 42.2749994,19.5256991 C41.1264231,21.2812465 39.5343148,22.1590071 37.4986268,22.1590071 C35.4629387,22.1590071 33.8708305,21.2812465 32.7222542,19.5256991 C31.5736779,17.7701516 30.9993984,15.2676002 30.9993984,12.0179697 Z M41.2524914,12.0179697 C41.2524914,10.9534356 41.1917952,9.94494474 41.070401,8.99246685 C40.9490067,8.03998897 40.7435734,7.20891779 40.4540948,6.49922838 C40.1646163,5.78953897 39.7770943,5.22459733 39.2915174,4.8043865 C38.8059404,4.38417566 38.2083162,4.1740734 37.4986268,4.1740734 C36.7889374,4.1740734 36.1913131,4.38417566 35.7057362,4.8043865 C35.2201592,5.22459733 34.8326373,5.78953897 34.5431587,6.49922838 C34.2536801,7.20891779 34.0482468,8.03998897 33.9268526,8.99246685 C33.8054583,9.94494474 33.7447621,10.9534356 33.7447621,12.0179697 C33.7447621,13.0825038 33.8054583,14.0909947 33.9268526,15.0434726 C34.0482468,15.9959505 34.2536801,16.8270217 34.5431587,17.5367111 C34.8326373,18.2464005 35.2201592,18.8113421 35.7057362,19.2315529 C36.1913131,19.6517638 36.7889374,19.861866 37.4986268,19.861866 C38.2083162,19.861866 38.8059404,19.6517638 39.2915174,19.2315529 C39.7770943,18.8113421 40.1646163,18.2464005 40.4540948,17.5367111 C40.7435734,16.8270217 40.9490067,15.9959505 41.070401,15.0434726 C41.1917952,14.0909947 41.2524914,13.0825038 41.2524914,12.0179697 Z M59.2454291,21.7387984 C58.7225001,20.3941237 58.1668963,18.8580427 57.5786011,17.1305093 C56.990306,15.4029759 56.453378,13.6054343 55.967801,11.7378306 C55.482224,13.6054343 54.949965,15.4029759 54.3710078,17.1305093 C53.7920507,18.8580427 53.2411158,20.3941237 52.7181868,21.7387984 L50.4490597,21.7387984 C49.589962,19.8151666 48.7495529,17.6207651 47.9278073,15.1555282 C47.1060616,12.6902914 46.3310177,10.028996 45.6026523,7.17156235 L48.4040438,7.17156235 C48.5908042,8.04933609 48.8149133,9.00179969 49.0763778,10.0289817 C49.3378423,11.0561638 49.6133097,12.0833304 49.9027883,13.1105124 C50.1922669,14.1376945 50.4957479,15.1275096 50.8132406,16.0799875 C51.1307332,17.0324653 51.4295453,17.8635365 51.7096859,18.5732259 C52.0271785,17.6954522 52.3399974,16.7663333 52.648152,15.7858413 C52.9563066,14.8053494 53.2504498,13.8155343 53.5305904,12.8163663 C53.8107309,11.8171983 54.0768605,10.8367211 54.328987,9.87490519 C54.5811134,8.91308928 54.8005536,8.01198401 54.987314,7.17156235 L57.1443855,7.17156235 C57.3124698,8.01198401 57.5179031,8.91308928 57.7606916,9.87490519 C58.0034801,10.8367211 58.2649407,11.8171983 58.5450812,12.8163663 C58.8252218,13.8155343 59.1193649,14.8053494 59.4275196,15.7858413 C59.7356742,16.7663333 60.0484931,17.6954522 60.3659857,18.5732259 C60.6461263,17.8635365 60.9402695,17.0324653 61.2484241,16.0799875 C61.5565787,15.1275096 61.8600597,14.1376945 62.1588763,13.1105124 C62.4576929,12.0833304 62.7378293,11.0561638 62.9992938,10.0289817 C63.2607583,9.00179969 63.4848674,8.04933609 63.6716277,7.17156235 L66.3609636,7.17156235 C65.6325982,10.028996 64.8575543,12.6902914 64.0358086,15.1555282 C63.214063,17.6207651 62.373654,19.8151666 61.5145563,21.7387984 L59.2454291,21.7387984 Z M67.9937747,14.4831943 C67.9937747,13.1945477 68.1805323,12.0693334 68.554053,11.1075175 C68.9275737,10.1457016 69.4224813,9.34731296 70.0387905,8.7123277 C70.6550997,8.07734244 71.3647785,7.60111064 72.1678481,7.28361801 C72.9709177,6.96612538 73.792651,6.80738145 74.6330726,6.80738145 C76.5940565,6.80738145 78.097455,7.41901249 79.143313,8.64229291 C80.1891711,9.86557333 80.7120923,11.7284801 80.7120923,14.231069 L80.7120923,14.6652847 C80.7120923,14.8427071 80.7027544,15.00612 80.6840784,15.1555282 L70.7111245,15.1555282 C70.8231807,16.6682872 71.262061,17.8168463 72.0277785,18.6012398 C72.793496,19.3856334 73.9887445,19.7778243 75.6135597,19.7778243 C76.5286855,19.7778243 77.2990605,19.6984523 77.9247077,19.539706 C78.5503549,19.3809597 79.0219178,19.2268847 79.3394104,19.0774764 L79.7035913,21.2625618 C79.3860987,21.4306461 78.8304949,21.6080658 78.0367634,21.7948262 C77.2430318,21.9815866 76.3419265,22.0749654 75.3334205,22.0749654 C74.06345,22.0749654 72.9662493,21.8835388 72.0417855,21.5006801 C71.1173216,21.1178213 70.3562845,20.5902312 69.7586514,19.9178939 C69.1610182,19.2455565 68.7174689,18.4471679 68.4279904,17.5227041 C68.1385118,16.5982403 67.9937747,15.5850805 67.9937747,14.4831943 Z M77.9947425,13.0544846 C78.0134185,11.8778943 77.7192754,10.9114238 77.1123042,10.1550443 C76.505333,9.39866484 75.6695928,9.02048077 74.6050587,9.02048077 C74.0074255,9.02048077 73.4798354,9.13720425 73.0222725,9.37065471 C72.5647096,9.60410517 72.1771876,9.90758622 71.859695,10.281107 C71.5422024,10.6546277 71.2947486,11.0841701 71.1173263,11.5697471 C70.9399039,12.055324 70.8231804,12.5502316 70.7671523,13.0544846 L77.9947425,13.0544846 Z M86.771102,7.8158824 C87.0885946,7.610446 87.5694954,7.39567479 88.2138186,7.17156235 C88.8581419,6.94744991 89.6005032,6.83539536 90.4409249,6.83539536 C91.486783,6.83539536 92.4159019,7.02215293 93.2283095,7.39567367 C94.0407171,7.76919441 94.7270512,8.29211561 95.2873323,8.96445294 C95.8476134,9.63679027 96.2724869,10.4398478 96.5619654,11.3736497 C96.851444,12.3074515 96.9961811,13.3346181 96.9961811,14.4551804 C96.9961811,15.6317707 96.8234304,16.6916199 96.4779237,17.6347598 C96.132417,18.5778996 95.6421784,19.3762882 95.0071931,20.0299495 C94.3722079,20.6836108 93.6065018,21.1878563 92.7100521,21.542701 C91.8136023,21.8975457 90.8051114,22.0749654 89.6845492,22.0749654 C88.4706068,22.0749654 87.3967508,21.9909245 86.4629489,21.8228401 C85.5291471,21.6547558 84.763441,21.486674 84.1658079,21.3185896 L84.1658079,0.448222647 L86.771102,0 L86.771102,7.8158824 Z M86.771102,19.4696712 C87.0325665,19.5443754 87.4014127,19.6144095 87.8776516,19.6797756 C88.3538906,19.7451417 88.9468459,19.7778243 89.6565353,19.7778243 C91.0572381,19.7778243 92.1777835,19.3155993 93.0182051,18.3911355 C93.8586268,17.4666716 94.2788313,16.1546997 94.2788313,14.4551804 C94.2788313,13.7081389 94.2041283,13.007798 94.05472,12.3541367 C93.9053117,11.7004754 93.6625269,11.1355338 93.3263582,10.6592948 C92.9901895,10.1830559 92.5559782,9.80954074 92.0237111,9.5387382 C91.4914441,9.26793567 90.8517994,9.13253643 90.1047579,9.13253643 C89.3950685,9.13253643 88.741417,9.25392885 88.1437838,9.49671733 C87.5461507,9.73950581 87.0885946,9.99162853 86.771102,10.253093 L86.771102,19.4696712 Z M100.365855,21.7387984 L100.365855,0.448222647 L102.971149,0 L102.971149,7.4517015 C103.456726,7.26494113 103.974978,7.12020402 104.525921,7.01748581 C105.076864,6.91476761 105.62313,6.86340928 106.164735,6.86340928 C107.32265,6.86340928 108.284451,7.02682215 109.050169,7.3536528 C109.815886,7.68048345 110.427517,8.13803949 110.88508,8.72633466 C111.342643,9.31462982 111.6648,10.0196396 111.85156,10.8413853 C112.038321,11.6631309 112.131699,12.5689051 112.131699,13.5587351 L112.131699,21.7387984 L109.526405,21.7387984 L109.526405,14.1190134 C109.526405,13.2225636 109.465709,12.4568576 109.344315,11.8218723 C109.222921,11.1868871 109.022156,10.6733037 108.742016,10.281107 C108.461875,9.88891019 108.08836,9.60410489 107.621459,9.42668254 C107.154558,9.24926019 106.57561,9.16055035 105.884596,9.16055035 C105.604456,9.16055035 105.314981,9.1792261 105.016165,9.21657818 C104.717348,9.25393025 104.432543,9.2959507 104.16174,9.3426408 C103.890938,9.38933089 103.648153,9.44068922 103.433379,9.49671733 C103.218604,9.55274544 103.064529,9.59943483 102.971149,9.63678691 L102.971149,21.7387984 L100.365855,21.7387984 Z M128.920039,14.4551804 C128.920039,15.6130947 128.751957,16.658937 128.415788,17.5927389 C128.07962,18.5265407 127.608057,19.3295983 127.001086,20.0019356 C126.394114,20.6742729 125.670429,21.1925252 124.830007,21.5567079 C123.989585,21.9208906 123.074473,22.1029793 122.084643,22.1029793 C121.094813,22.1029793 120.179701,21.9208906 119.33928,21.5567079 C118.498858,21.1925252 117.775172,20.6742729 117.168201,20.0019356 C116.56123,19.3295983 116.089667,18.5265407 115.753498,17.5927389 C115.41733,16.658937 115.249248,15.6130947 115.249248,14.4551804 C115.249248,13.3159421 115.41733,12.2747687 115.753498,11.3316288 C116.089667,10.3884889 116.56123,9.58076244 117.168201,8.90842511 C117.775172,8.23608777 118.498858,7.71783552 119.33928,7.3536528 C120.179701,6.98947008 121.094813,6.80738145 122.084643,6.80738145 C123.074473,6.80738145 123.989585,6.98947008 124.830007,7.3536528 C125.670429,7.71783552 126.394114,8.23608777 127.001086,8.90842511 C127.608057,9.58076244 128.07962,10.3884889 128.415788,11.3316288 C128.751957,12.2747687 128.920039,13.3159421 128.920039,14.4551804 Z M126.202689,14.4551804 C126.202689,12.8116891 125.833843,11.5090551 125.096139,10.5472392 C124.358436,9.58542325 123.354614,9.10452251 122.084643,9.10452251 C120.814673,9.10452251 119.810851,9.58542325 119.073147,10.5472392 C118.335444,11.5090551 117.966598,12.8116891 117.966598,14.4551804 C117.966598,16.0986716 118.335444,17.4013057 119.073147,18.3631216 C119.810851,19.3249375 120.814673,19.8058382 122.084643,19.8058382 C123.354614,19.8058382 124.358436,19.3249375 125.096139,18.3631216 C125.833843,17.4013057 126.202689,16.0986716 126.202689,14.4551804 Z M135.679396,19.861866 C136.74393,19.861866 137.532981,19.7217979 138.046572,19.4416573 C138.560163,19.1615168 138.816955,18.7132986 138.816955,18.0969894 C138.816955,17.4620041 138.564832,16.9577587 138.060579,16.5842379 C137.556326,16.2107172 136.725255,15.7905127 135.567341,15.3236117 C135.00706,15.0994993 134.470132,14.8707213 133.956541,14.6372708 C133.442949,14.4038203 132.9994,14.1283529 132.62588,13.8108603 C132.252359,13.4933677 131.953547,13.1105147 131.729434,12.6622898 C131.505322,12.2140649 131.393267,11.6631301 131.393267,11.0094688 C131.393267,9.72082221 131.869499,8.69832452 132.821977,7.94194502 C133.774455,7.18556553 135.07242,6.80738145 136.715911,6.80738145 C137.126784,6.80738145 137.537651,6.83072615 137.948523,6.87741624 C138.359396,6.92410633 138.742249,6.9801336 139.097094,7.04549973 C139.451939,7.11086586 139.764758,7.18089995 140.03556,7.2556041 C140.306363,7.33030824 140.516465,7.39567339 140.665873,7.4517015 L140.189637,9.69281474 C139.909496,9.54340644 139.470616,9.38933145 138.872983,9.23058513 C138.275349,9.07183882 137.556333,8.99246685 136.715911,8.99246685 C135.987546,8.99246685 135.35257,9.13720397 134.810965,9.42668254 C134.26936,9.71616112 133.998561,10.1690482 133.998561,10.7853574 C133.998561,11.1028501 134.059258,11.3829864 134.180652,11.6257749 C134.302046,11.8685634 134.488804,12.0880035 134.74093,12.2841019 C134.993057,12.4802003 135.305876,12.6622889 135.679396,12.8303733 C136.052917,12.9984576 136.501135,13.1758773 137.024064,13.3626377 C137.715078,13.6241022 138.331378,13.8808938 138.872983,14.1330203 C139.414588,14.3851468 139.876813,14.67929 140.259671,15.0154587 C140.64253,15.3516273 140.936673,15.757825 141.14211,16.234064 C141.347546,16.7103029 141.450263,17.2939203 141.450263,17.9849337 C141.450263,19.3296084 140.950686,20.3474371 139.951518,21.0384505 C138.95235,21.7294639 137.528324,22.0749654 135.679396,22.0749654 C134.39075,22.0749654 133.382259,21.9675798 132.653893,21.7528053 C131.925528,21.5380309 131.43062,21.374618 131.169156,21.2625618 L131.645392,19.0214486 C131.944209,19.1335048 132.420441,19.3015866 133.074102,19.5256991 C133.727763,19.7498115 134.596186,19.861866 135.679396,19.861866 Z M146.92098,7.17156235 L152.439722,7.17156235 L152.439722,9.35664775 L146.92098,9.35664775 L146.92098,16.0799875 C146.92098,16.8083529 146.977008,17.4106461 147.089064,17.886885 C147.20112,18.3631239 147.369202,18.7366391 147.593314,19.0074416 C147.817427,19.2782442 148.097563,19.4696707 148.433732,19.5817269 C148.7699,19.6937831 149.162091,19.7498104 149.610316,19.7498104 C150.39471,19.7498104 151.025017,19.6611005 151.501256,19.4836782 C151.977494,19.3062558 152.308989,19.1801945 152.49575,19.1054903 L153,21.2625618 C152.738535,21.3932941 152.280979,21.5567069 151.627318,21.7528053 C150.973657,21.9489037 150.226627,22.0469514 149.386205,22.0469514 C148.396375,22.0469514 147.579311,21.9208901 146.934987,21.6687636 C146.290664,21.4166371 145.772412,21.038453 145.380215,20.5342 C144.988018,20.029947 144.712551,19.4089781 144.553804,18.6712746 C144.395058,17.9335712 144.315686,17.0791553 144.315686,16.1080014 L144.315686,3.10954461 L146.92098,2.66132197 L146.92098,7.17156235 Z" id="000webhost"></path>
                    <path d="M3.25066301,30.0885201 C4.36878645,30.0885201 5.22720382,30.2895323 5.82594088,30.6915629 C6.42467795,31.0935935 6.72404199,31.7519549 6.72404199,32.6666667 C6.72404199,33.5887552 6.42107115,34.2544931 5.81512039,34.6639004 C5.20916962,35.0733077 4.34353866,35.2780083 3.21820153,35.2780083 L2.68799726,35.2780083 L2.68799726,37.8450899 L1,37.8450899 L1,30.2876902 C1.36789868,30.2139231 1.75743261,30.1622869 2.16861349,30.1327801 C2.57979436,30.1032733 2.94047393,30.0885201 3.25066301,30.0885201 Z M3.35886796,31.560166 C3.23623507,31.560166 3.11540742,31.5638543 2.99638137,31.571231 C2.87735533,31.5786077 2.77456165,31.5859843 2.68799726,31.593361 L2.68799726,33.8063624 L3.21820153,33.8063624 C3.80251119,33.8063624 4.24254026,33.7252198 4.53830195,33.5629322 C4.83406363,33.4006446 4.98194225,33.0982041 4.98194225,32.6556017 C4.98194225,32.4416771 4.9440709,32.2646388 4.86832705,32.1244813 C4.79258321,31.9843239 4.68437934,31.8718308 4.54371219,31.7869986 C4.40304505,31.7021665 4.23172226,31.6431537 4.02973867,31.6099585 C3.82775508,31.5767633 3.60413375,31.560166 3.35886796,31.560166 Z M10.3687455,34.0055325 C10.3687455,34.3817446 10.4138304,34.7210681 10.5040017,35.0235131 C10.5941729,35.3259582 10.7240176,35.5859832 10.8935395,35.8035961 C11.0630615,36.021209 11.2704522,36.1890266 11.515718,36.3070539 C11.7609838,36.4250813 12.0423138,36.4840941 12.3597166,36.4840941 C12.6699057,36.4840941 12.9494324,36.4250813 13.198305,36.3070539 C13.4471776,36.1890266 13.6563718,36.021209 13.8258937,35.8035961 C13.9954157,35.5859832 14.1252603,35.3259582 14.2154316,35.0235131 C14.3056028,34.7210681 14.3506878,34.3817446 14.3506878,34.0055325 C14.3506878,33.6293204 14.3056028,33.2881528 14.2154316,32.9820194 C14.1252603,32.675886 13.9954157,32.4140168 13.8258937,32.1964039 C13.6563718,31.978791 13.4471776,31.8109734 13.198305,31.6929461 C12.9494324,31.5749187 12.6699057,31.5159059 12.3597166,31.5159059 C12.0423138,31.5159059 11.7609838,31.5767629 11.515718,31.6984786 C11.2704522,31.8201942 11.0630615,31.989856 10.8935395,32.2074689 C10.7240176,32.4250818 10.5941729,32.686951 10.5040017,32.9930844 C10.4138304,33.2992178 10.3687455,33.6366971 10.3687455,34.0055325 Z M16.0927875,34.0055325 C16.0927875,34.6620595 15.9972074,35.2392783 15.8060444,35.7372061 C15.6148813,36.2351339 15.3533886,36.6519116 15.0215585,36.9875519 C14.6897283,37.3231921 14.2947842,37.5758406 13.8367142,37.7455048 C13.3786443,37.9151691 12.8863167,38 12.3597166,38 C11.847544,38 11.3642333,37.9151691 10.9097703,37.7455048 C10.4553072,37.5758406 10.0585597,37.3231921 9.71951579,36.9875519 C9.38047191,36.6519116 9.11356903,36.2351339 8.91879914,35.7372061 C8.72402925,35.2392783 8.62664577,34.6620595 8.62664577,34.0055325 C8.62664577,33.3490055 8.72763605,32.7717867 8.92961963,32.2738589 C9.13160322,31.7759311 9.40391629,31.3573092 9.74656702,31.0179806 C10.0892178,30.6786521 10.4859653,30.4241594 10.9368215,30.2544952 C11.3876777,30.0848309 11.8619714,30 12.3597166,30 C12.8718893,30 13.3551999,30.0848309 13.809663,30.2544952 C14.2641261,30.4241594 14.6608736,30.6786521 14.9999175,31.0179806 C15.3389613,31.3573092 15.6058642,31.7759311 15.8006341,32.2738589 C15.995404,32.7717867 16.0927875,33.3490055 16.0927875,34.0055325 Z M23.4056389,30.9958506 C23.4922033,31.2982957 23.5877834,31.6394633 23.692382,32.0193638 C23.7969807,32.3992642 23.9087913,32.792068 24.0278174,33.197787 C24.1468434,33.6035059 24.2676711,34.0092188 24.390304,34.4149378 C24.5129369,34.8206567 24.6319611,35.1968632 24.7473803,35.5435685 C24.8411584,35.1673563 24.9367385,34.7579552 25.0341234,34.3153527 C25.1315084,33.8727502 25.2234817,33.4154012 25.3100461,32.9432918 C25.3966105,32.4711825 25.4813701,32.0009244 25.5643277,31.5325035 C25.6472852,31.0640825 25.7248313,30.6122659 25.7969683,30.1770401 L27.5498886,30.1770401 C27.2974091,31.4605873 27.007062,32.7625568 26.6788387,34.0829876 C26.3506154,35.4034183 25.995346,36.6574399 25.6130199,37.8450899 L24.0656891,37.8450899 C23.8132096,37.1369259 23.5679475,36.3937337 23.3298954,35.615491 C23.0918433,34.8372483 22.8574016,34.0571731 22.6265632,33.275242 C22.3957248,34.0571731 22.1648899,34.8372483 21.9340515,35.615491 C21.7032132,36.3937337 21.4615578,37.1369259 21.2090784,37.8450899 L19.6617475,37.8450899 C19.2794215,36.6574399 18.9241521,35.4034183 18.5959288,34.0829876 C18.2677054,32.7625568 17.9773584,31.4605873 17.7248789,30.1770401 L19.5535426,30.1770401 C19.6256796,30.6122659 19.7050291,31.0640825 19.7915935,31.5325035 C19.8781579,32.0009244 19.9683278,32.4711825 20.0621059,32.9432918 C20.155884,33.4154012 20.251464,33.8727502 20.348849,34.3153527 C20.4462339,34.7579552 20.5454208,35.1673563 20.6464126,35.5435685 C20.7762592,35.1821098 20.902497,34.7985267 21.0251299,34.3928077 C21.1477628,33.9870888 21.2667871,33.5813759 21.3822063,33.175657 C21.4976255,32.769938 21.6040259,32.3789784 21.7014109,32.0027663 C21.7987958,31.6265541 21.8871623,31.2909189 21.966513,30.9958506 L23.4056389,30.9958506 Z M29.6147998,37.8450899 L29.6147998,30.1770401 L34.6787916,30.1770401 L34.6787916,31.626556 L31.302797,31.626556 L31.302797,33.131397 L34.3000742,33.131397 L34.3000742,34.5477178 L31.302797,34.5477178 L31.302797,36.395574 L34.9276629,36.395574 L34.9276629,37.8450899 L29.6147998,37.8450899 Z M39.3514421,30.0885201 C40.4767793,30.0885201 41.3388034,30.2932206 41.9375405,30.7026279 C42.5362775,31.1120352 42.8356416,31.7482668 42.8356416,32.6113416 C42.8356416,33.1498413 42.7148139,33.5869047 42.473155,33.922545 C42.2314961,34.2581852 41.8834403,34.5218985 41.4289772,34.7136929 C41.5804649,34.9054874 41.7391639,35.1249411 41.905079,35.3720609 C42.0709941,35.6191806 42.2351033,35.8773615 42.3974115,36.1466113 C42.5597198,36.4158612 42.7166154,36.6961719 42.8681031,36.9875519 C43.0195908,37.2789318 43.1602558,37.564775 43.2901024,37.8450899 L41.3965157,37.8450899 C41.2594554,37.5942818 41.1205938,37.3397892 40.9799267,37.0816044 C40.8392595,36.8234196 40.6949877,36.5726153 40.5471068,36.329184 C40.399226,36.0857526 40.2531508,35.8552339 40.1088768,35.637621 C39.9646028,35.4200081 39.820331,35.2226841 39.676057,35.0456432 L38.8428788,35.0456432 L38.8428788,37.8450899 L37.1548816,37.8450899 L37.1548816,30.2876902 C37.5227803,30.2139231 37.9032972,30.1622869 38.2964438,30.1327801 C38.6895905,30.1032733 39.041253,30.0885201 39.3514421,30.0885201 Z M39.4488266,31.560166 C39.3261937,31.560166 39.2161864,31.5638543 39.1188015,31.571231 C39.0214165,31.5786077 38.9294432,31.5859843 38.8428788,31.593361 L38.8428788,33.6735823 L39.3189806,33.6735823 C39.9537862,33.6735823 40.4082425,33.5924397 40.682363,33.4301521 C40.9564836,33.2678646 41.0935419,32.9912422 41.0935419,32.6002766 C41.0935419,32.2240645 40.9546802,31.9566628 40.6769528,31.7980636 C40.3992254,31.6394644 39.989854,31.560166 39.4488266,31.560166 Z M45.3550136,37.8450899 L45.3550136,30.1770401 L50.4190054,30.1770401 L50.4190054,31.626556 L47.0430109,31.626556 L47.0430109,33.131397 L50.040288,33.131397 L50.040288,34.5477178 L47.0430109,34.5477178 L47.0430109,36.395574 L50.6678768,36.395574 L50.6678768,37.8450899 L45.3550136,37.8450899 Z M54.5830927,36.439834 C54.6624434,36.4472107 54.7544166,36.4527432 54.8590153,36.4564315 C54.9636139,36.4601199 55.0880484,36.461964 55.2323224,36.461964 C56.0763252,36.461964 56.7021043,36.2443544 57.1096783,35.8091286 C57.5172523,35.3739028 57.7210363,34.7727102 57.7210363,34.0055325 C57.7210363,33.2014713 57.5262693,32.592902 57.1367295,32.1798064 C56.7471898,31.7667107 56.1304277,31.560166 55.2864249,31.560166 C55.1710057,31.560166 55.0519814,31.5620101 54.9293485,31.5656985 C54.8067156,31.5693868 54.6912982,31.5786076 54.5830927,31.593361 L54.5830927,36.439834 Z M59.463136,34.0055325 C59.463136,34.6694362 59.3621457,35.2484991 59.1601622,35.7427386 C58.9581786,36.236978 58.6714383,36.6463792 58.2999328,36.9709544 C57.9284273,37.2955295 57.4757744,37.5389572 56.9419606,37.7012448 C56.4081469,37.8635324 55.8094188,37.944675 55.1457584,37.944675 C54.842783,37.944675 54.4893171,37.9317659 54.0853499,37.9059474 C53.6813827,37.880129 53.2846352,37.8266486 52.8950954,37.7455048 L52.8950954,30.2766252 C53.2846352,30.2028581 53.6903997,30.1530661 54.1124011,30.1272476 C54.5344025,30.1014291 54.8968855,30.0885201 55.1998609,30.0885201 C55.8418802,30.0885201 56.4243777,30.162286 56.9473709,30.3098202 C57.4703641,30.4573544 57.9194102,30.6897172 58.2945225,31.0069156 C58.6696349,31.3241141 58.9581786,31.7298269 59.1601622,32.2240664 C59.3621457,32.7183058 59.463136,33.3121219 59.463136,34.0055325 Z M67.931977,37.944675 C67.5207962,37.944675 67.1114248,37.9317659 66.7038508,37.9059474 C66.2962768,37.880129 65.8724783,37.819272 65.4324426,37.7233748 L65.4324426,30.2876902 C65.7787002,30.2212998 66.1574138,30.1715078 66.5685946,30.1383126 C66.9797755,30.1051174 67.3620958,30.0885201 67.7155671,30.0885201 C68.1916713,30.0885201 68.629897,30.1235589 69.0302573,30.1936376 C69.4306176,30.2637163 69.7750666,30.3835861 70.0636146,30.5532503 C70.3521626,30.7229146 70.5775873,30.9460567 70.7398955,31.2226833 C70.9022038,31.4993098 70.9833567,31.8404775 70.9833567,32.2461964 C70.9833567,32.8584632 70.694813,33.3416303 70.1177171,33.6957123 C70.5938212,33.88013 70.9184329,34.1309343 71.0915616,34.4481328 C71.2646904,34.7653312 71.3512535,35.1230962 71.3512535,35.5214385 C71.3512535,36.3254996 71.0645133,36.9303806 70.4910242,37.3360996 C69.917535,37.7418185 69.0645279,37.944675 67.931977,37.944675 Z M67.0771579,34.5034578 L67.0771579,36.4840941 C67.1997908,36.4988475 67.3332422,36.5099124 67.4775162,36.5172891 C67.6217902,36.5246658 67.7804892,36.5283541 67.953618,36.5283541 C68.458577,36.5283541 68.8661449,36.4545881 69.176334,36.3070539 C69.4865231,36.1595198 69.6416153,35.8865857 69.6416153,35.4882434 C69.6416153,35.1341614 69.5117706,34.881513 69.2520775,34.7302905 C68.9923843,34.5790679 68.6208843,34.5034578 68.1375664,34.5034578 L67.0771579,34.5034578 Z M67.0771579,33.186722 L67.8995155,33.186722 C68.4189019,33.186722 68.7904019,33.1184885 69.0140266,32.9820194 C69.2376512,32.8455503 69.3494619,32.6260965 69.3494619,32.3236515 C69.3494619,32.0138297 69.2340444,31.7962201 69.0032061,31.670816 C68.7723677,31.545412 68.4333289,31.4827109 67.9860795,31.4827109 C67.8418055,31.4827109 67.6867133,31.4845551 67.5207982,31.4882434 C67.3548831,31.4919318 67.2070045,31.5011525 67.0771579,31.5159059 L67.0771579,33.186722 Z M76.0671861,33.3305671 C76.3701615,32.8068208 76.6587051,32.2830824 76.9328257,31.7593361 C77.2069463,31.2355898 77.459422,30.7081631 77.6902604,30.1770401 L79.5513855,30.1770401 C79.1402047,31.0032314 78.7146028,31.8035923 78.2745671,32.5781466 C77.8345314,33.352701 77.3692548,34.130932 76.8787232,34.9128631 L76.8787232,37.8450899 L75.190726,37.8450899 L75.190726,34.9349931 C74.7001944,34.153062 74.2331143,33.3711427 73.7894718,32.5892116 C73.3458293,31.8072806 72.918424,31.0032314 72.5072431,30.1770401 L74.4657528,30.1770401 C74.6965912,30.7081631 74.9454601,31.2355898 75.2123669,31.7593361 C75.4792738,32.2830824 75.7642107,32.8068208 76.0671861,33.3305671 Z M89.5567369,30.1770401 L91.2447341,30.1770401 L91.2447341,37.8450899 L89.5567369,37.8450899 L89.5567369,34.5919779 L86.7217671,34.5919779 L86.7217671,37.8450899 L85.0337699,37.8450899 L85.0337699,30.1770401 L86.7217671,30.1770401 L86.7217671,33.1092669 L89.5567369,33.1092669 L89.5567369,30.1770401 Z M95.3763599,34.0055325 C95.3763599,34.3817446 95.4214449,34.7210681 95.5116161,35.0235131 C95.6017874,35.3259582 95.731632,35.5859832 95.901154,35.8035961 C96.0706759,36.021209 96.2780666,36.1890266 96.5233324,36.3070539 C96.7685982,36.4250813 97.0499283,36.4840941 97.3673311,36.4840941 C97.6775201,36.4840941 97.9570468,36.4250813 98.2059194,36.3070539 C98.4547921,36.1890266 98.6639862,36.021209 98.8335082,35.8035961 C99.0030301,35.5859832 99.1328748,35.3259582 99.223046,35.0235131 C99.3132172,34.7210681 99.3583022,34.3817446 99.3583022,34.0055325 C99.3583022,33.6293204 99.3132172,33.2881528 99.223046,32.9820194 C99.1328748,32.675886 99.0030301,32.4140168 98.8335082,32.1964039 C98.6639862,31.978791 98.4547921,31.8109734 98.2059194,31.6929461 C97.9570468,31.5749187 97.6775201,31.5159059 97.3673311,31.5159059 C97.0499283,31.5159059 96.7685982,31.5767629 96.5233324,31.6984786 C96.2780666,31.8201942 96.0706759,31.989856 95.901154,32.2074689 C95.731632,32.4250818 95.6017874,32.686951 95.5116161,32.9930844 C95.4214449,33.2992178 95.3763599,33.6366971 95.3763599,34.0055325 Z M101.100402,34.0055325 C101.100402,34.6620595 101.004822,35.2392783 100.813659,35.7372061 C100.622496,36.2351339 100.361003,36.6519116 100.029173,36.9875519 C99.6973427,37.3231921 99.3023986,37.5758406 98.8443287,37.7455048 C98.3862587,37.9151691 97.8939311,38 97.3673311,38 C96.8551584,38 96.3718478,37.9151691 95.9173847,37.7455048 C95.4629216,37.5758406 95.0661741,37.3231921 94.7271302,36.9875519 C94.3880863,36.6519116 94.1211835,36.2351339 93.9264136,35.7372061 C93.7316437,35.2392783 93.6342602,34.6620595 93.6342602,34.0055325 C93.6342602,33.3490055 93.7352505,32.7717867 93.9372341,32.2738589 C94.1392177,31.7759311 94.4115307,31.3573092 94.7541815,31.0179806 C95.0968322,30.6786521 95.4935797,30.4241594 95.9444359,30.2544952 C96.3952922,30.0848309 96.8695858,30 97.3673311,30 C97.8795037,30 98.3628144,30.0848309 98.8172774,30.2544952 C99.2717405,30.4241594 99.668488,30.6786521 100.007532,31.0179806 C100.346576,31.3573092 100.613479,31.7759311 100.808249,32.2738589 C101.003018,32.7717867 101.100402,33.3490055 101.100402,34.0055325 Z M105.535002,36.5283541 C105.773054,36.5283541 105.969624,36.5080684 106.124719,36.4674965 C106.279813,36.4269246 106.404248,36.3716002 106.498026,36.3015214 C106.591804,36.2314427 106.656726,36.148456 106.692795,36.0525588 C106.728863,35.9566616 106.746897,35.8497009 106.746897,35.7316736 C106.746897,35.4808655 106.63148,35.2724766 106.400641,35.1065007 C106.169803,34.9405248 105.773055,34.7616423 105.210387,34.5698479 C104.965121,34.4813274 104.719859,34.3798991 104.474593,34.2655602 C104.229327,34.1512212 104.009313,34.0073775 103.814543,33.8340249 C103.619773,33.6606723 103.461074,33.4504392 103.338441,33.2033195 C103.215808,32.9561998 103.154493,32.6556034 103.154493,32.3015214 C103.154493,31.9474394 103.219415,31.6284016 103.349262,31.3443983 C103.479108,31.0603951 103.663055,30.8188115 103.901107,30.6196404 C104.139159,30.4204693 104.427703,30.2674049 104.766746,30.1604426 C105.10579,30.0534803 105.488111,30 105.913719,30 C106.418678,30 106.8551,30.0553245 107.222999,30.1659751 C107.590898,30.2766257 107.893868,30.3983396 108.13192,30.5311203 L107.644998,31.8921162 C107.435801,31.7814656 107.203163,31.6837256 106.947076,31.5988935 C106.69099,31.5140614 106.382609,31.4716459 106.021924,31.4716459 C105.617957,31.4716459 105.32761,31.5288146 105.150874,31.6431535 C104.974138,31.7574925 104.885772,31.9326867 104.885772,32.1687414 C104.885772,32.3088988 104.918233,32.4269244 104.983156,32.5228216 C105.04808,32.6187188 105.140053,32.7053938 105.259079,32.7828492 C105.378105,32.8603047 105.515163,32.9303824 105.670258,32.9930844 C105.825352,33.0557864 105.996675,33.1203316 106.184231,33.186722 C106.573771,33.3342562 106.91281,33.479944 107.201358,33.6237898 C107.489906,33.7676356 107.729758,33.9354532 107.920921,34.1272476 C108.112084,34.319042 108.254552,34.5440282 108.34833,34.802213 C108.442108,35.0603978 108.488997,35.3739032 108.488997,35.7427386 C108.488997,36.4582793 108.243735,37.0133682 107.753203,37.4080221 C107.262672,37.802676 106.523278,38 105.535002,38 C105.203171,38 104.903807,37.9797144 104.6369,37.9391425 C104.369994,37.8985706 104.133748,37.8487785 103.928158,37.7897649 C103.722568,37.7307512 103.545835,37.6680501 103.397954,37.6016598 C103.250073,37.5352694 103.125638,37.4725683 103.024647,37.4135546 L103.500748,36.0414938 C103.724373,36.1668978 104.000293,36.2793909 104.328516,36.3789765 C104.65674,36.478562 105.058897,36.5283541 105.535002,36.5283541 Z M116.115643,30.1770401 L116.115643,31.648686 L113.854159,31.648686 L113.854159,37.8450899 L112.166162,37.8450899 L112.166162,31.648686 L109.904678,31.648686 L109.904678,30.1770401 L116.115643,30.1770401 Z M118.180554,30.1770401 L119.868551,30.1770401 L119.868551,37.8450899 L118.180554,37.8450899 L118.180554,30.1770401 Z M127.614222,37.8450899 C127.130904,36.9672616 126.607919,36.1005114 126.04525,35.2448133 C125.482582,34.3891151 124.883854,33.5813777 124.249048,32.8215768 L124.249048,37.8450899 L122.582692,37.8450899 L122.582692,30.1770401 L123.956895,30.1770401 C124.194947,30.4204715 124.458243,30.7192237 124.746791,31.0733057 C125.035339,31.4273877 125.329293,31.8054383 125.628661,32.2074689 C125.92803,32.6094995 126.225591,33.0262772 126.521352,33.4578147 C126.817114,33.8893521 127.094837,34.3042857 127.35453,34.7026279 L127.35453,30.1770401 L129.031707,30.1770401 L129.031707,37.8450899 L127.614222,37.8450899 Z M135.403175,31.5048409 C134.616882,31.5048409 134.048812,31.727983 133.698947,32.1742739 C133.349083,32.6205647 133.174153,33.2309781 133.174153,34.0055325 C133.174153,34.3817446 133.217435,34.7229123 133.303999,35.0290456 C133.390564,35.335179 133.520408,35.5988924 133.693537,35.8201936 C133.866666,36.0414949 134.083074,36.2130008 134.342767,36.3347165 C134.60246,36.4564321 134.905431,36.5172891 135.251689,36.5172891 C135.439245,36.5172891 135.599747,36.5136008 135.733201,36.5062241 C135.866654,36.4988474 135.983875,36.4840942 136.084867,36.461964 L136.084867,33.7952974 L137.772864,33.7952974 L137.772864,37.5905947 C137.57088,37.6717385 137.246269,37.7584136 136.799019,37.8506224 C136.35177,37.9428313 135.79993,37.988935 135.143484,37.988935 C134.580815,37.988935 134.070453,37.9004158 133.612383,37.7233748 C133.154314,37.5463338 132.762976,37.2881529 132.43836,36.9488243 C132.113743,36.6094958 131.863071,36.192718 131.686335,35.6984786 C131.5096,35.2042391 131.421233,34.6399294 131.421233,34.0055325 C131.421233,33.3637589 131.518617,32.7957609 131.713387,32.3015214 C131.908156,31.807282 132.175059,31.3886601 132.514103,31.0456432 C132.853147,30.7026262 133.251698,30.4426012 133.709768,30.2655602 C134.167838,30.0885192 134.656559,30 135.175945,30 C135.529416,30 135.848618,30.0239739 136.133559,30.0719225 C136.4185,30.1198711 136.663762,30.1751956 136.869353,30.2378976 C137.074943,30.3005997 137.244462,30.3651449 137.377916,30.4315353 C137.511369,30.4979256 137.606949,30.5495618 137.664659,30.5864454 L137.177737,31.9695712 C136.946898,31.8441672 136.681799,31.7353624 136.38243,31.6431535 C136.083062,31.5509447 135.756647,31.5048409 135.403175,31.5048409 Z M140.324697,37.8450899 L140.324697,30.1770401 L145.388689,30.1770401 L145.388689,31.626556 L142.012695,31.626556 L142.012695,33.131397 L145.009972,33.131397 L145.009972,34.5477178 L142.012695,34.5477178 L142.012695,36.395574 L145.637561,36.395574 L145.637561,37.8450899 L140.324697,37.8450899 Z M150.06134,30.0885201 C151.186677,30.0885201 152.048701,30.2932206 152.647438,30.7026279 C153.246175,31.1120352 153.545539,31.7482668 153.545539,32.6113416 C153.545539,33.1498413 153.424712,33.5869047 153.183053,33.922545 C152.941394,34.2581852 152.593338,34.5218985 152.138875,34.7136929 C152.290363,34.9054874 152.449062,35.1249411 152.614977,35.3720609 C152.780892,35.6191806 152.945001,35.8773615 153.107309,36.1466113 C153.269617,36.4158612 153.426513,36.6961719 153.578001,36.9875519 C153.729488,37.2789318 153.870153,37.564775 154,37.8450899 L152.106413,37.8450899 C151.969353,37.5942818 151.830491,37.3397892 151.689824,37.0816044 C151.549157,36.8234196 151.404885,36.5726153 151.257004,36.329184 C151.109124,36.0857526 150.963048,35.8552339 150.818774,35.637621 C150.6745,35.4200081 150.530229,35.2226841 150.385955,35.0456432 L149.552776,35.0456432 L149.552776,37.8450899 L147.864779,37.8450899 L147.864779,30.2876902 C148.232678,30.2139231 148.613195,30.1622869 149.006341,30.1327801 C149.399488,30.1032733 149.751151,30.0885201 150.06134,30.0885201 Z M150.158724,31.560166 C150.036091,31.560166 149.926084,31.5638543 149.828699,31.571231 C149.731314,31.5786077 149.639341,31.5859843 149.552776,31.593361 L149.552776,33.6735823 L150.028878,33.6735823 C150.663684,33.6735823 151.11814,33.5924397 151.392261,33.4301521 C151.666381,33.2678646 151.803439,32.9912422 151.803439,32.6002766 C151.803439,32.2240645 151.664578,31.9566628 151.38685,31.7980636 C151.109123,31.6394644 150.699752,31.560166 150.158724,31.560166 Z" id="POWERED-BY-HOSTINGER-Copy"></path>
                </g>
            </g>
            <path d="M31.4625954,30.5271605 C27.4564885,67.1987654 60.4824427,72.8555556 69.8625954,62.3222222 C53.3496183,103.187654 14.5587786,56.9580247 31.4625954,30.5271605 Z M25.1114504,25.9432099 C10.8458015,27.991358 -10.3572519,73.3432099 14.7541985,68.1740741 C-0.683969466,62.6148148 14.8519084,30.5271605 25.1114504,25.9432099 Z M25.1114504,20.1888889 C20.1282443,17.8481481 1.95419847,24.7728395 0.586259542,38.7197531 C4.00610687,31.3074074 12.8977099,21.2617284 25.1114504,20.1888889 Z M31.3648855,15.0197531 C23.7435115,9.07037037 14.6564885,15.8975309 11.8229008,17.4580247 C19.4442748,8.58271605 30.8763359,10.045679 31.3648855,15.0197531 Z M38.5954198,13.1666667 C43.8717557,8.38765432 35.9572519,-0.682716049 28.3358779,6.63209877 C31.0717557,5.4617284 40.2564885,3.90123457 38.5954198,13.1666667 Z M47.2916031,14.5320988 C57.3557252,4.97407407 48.9526718,1.26790123 46.3145038,1.07283951 C60.3847328,-2.53580247 54.1312977,12.7765432 47.2916031,14.5320988 Z M48.9526718,20.3839506 C59.4076336,24.382716 90.5770992,7.11975309 65.7587786,3.70617284 C71.4259542,5.07160494 72.6961832,16.482716 48.9526718,20.3839506 Z M41.6244275,29.0641975 C48.5618321,49.0580247 110.509924,47.2049383 83.8351145,20.1888889 C89.6,29.454321 75.2366412,45.937037 41.6244275,29.0641975 Z" id="XMLID_2_" fill="#D10303"></path>
        </g>
    </g>
</svg>